<svg version="1.1" xmlns="http://www.w3.org/2000/svg" viewBox="0 0 350 350" ><path fill="#afe39d" d="M82 221.2c-23.02-14.32-26.52-63.42-7.56-75.84 0 0-18.55-3.66-22.75 23.49l-4.24-19.43S34 171.15 42.3 184.78l-11.9-14.12s-2.77 33.22 16.13 47.72l-13.45-6.81s6.66 30.57 37.74 36.92c0 0 33.57-13.36 11.18-27.29z" /><g opacity="0.12" ><path d="M73.4 146.1c.34-.26.68-.51 1.04-.74 0 0-2.82-.56-6.51.37 2.56-.23 4.57.15 5.47.37z" /><path d="m34.37 212.22-1.29-.65s.09.4.29 1.13l3.57 2.42c-.93-.93-1.78-1.9-2.57-2.9z" /><path d="M83 222.2c-21.2-8.09-27.64-60.47-11.81-76.1-18.32 13.12-25.31 60 5.5 87.89 10.55 9.57 11.11-9.96 6.31-11.79z" /></g><path fill="#d4ffc5" d="M55.77 170.05c3-19.38 10.51-21.69 16.51-23.97-2.84-.29-16.08.6-20.04 21.72-.37 1.97 1.92 3.96 3.53 2.25z" /><path fill="#d4ffc5" d="M43.07 184.81c-6.54-16.07.96-28.32 4.37-32.73 0 0-4.12 33.35-4.37 32.73z" /><path fill="#d4ffc5" d="M79.57 243.97c-29.79-3.72-45.2-31.76-45.2-31.76s6.12 30.75 37.2 37.11l8-5.35z" /><path fill="#d4ffc5" d="M50.8 216.28C34.96 195.76 31.48 172 31.48 172s-1.56 30.6 15 46.44c0 0 6.28.37 4.32-2.16z" /><path fill="none" stroke="#000000" stroke-width="4" stroke-linecap="round" stroke-linejoin="round" stroke-miterlimit="10" d="M83 222.2c-22.32-8.52-27.52-64.42-8.56-76.84 0 0-18.55-3.66-22.75 23.49l-4.24-19.43S34 171.15 42.3 184.78l-11.9-14.12s-2.77 33.22 16.13 47.72l-13.45-6.81s6.66 30.57 37.74 36.92" /><path fill="#ffea93" d="m268.35 91.01-41.06 190.15c-1.43 6.59 2.76 13.1 9.35 14.53 6.59 1.43 13.1-2.76 14.53-9.35l41.06-190.15" /><path opacity="0.9" fill="#f8d276" d="M231.04 292.8c4.03-1.29 7.28-4.62 8.24-9.05l41.81-193.57-11.98-2.6-41.81 193.57c-.97 4.43.6 8.81 3.74 11.65z" /><path fill="none" stroke="#000000" stroke-width="4" stroke-miterlimit="10" d="m268.35 91.01-41.06 190.15c-1.43 6.59 2.76 13.1 9.35 14.53l1.99.26c8.15.57 11.06-3.41 12.49-10.01l41.11-189.75" /><path fill="#ffa6d3" d="m285.04 113.06-17.13-3.71c-5.85-1.27-9.57-7.04-8.3-12.9l1.69-7.8 38.33 8.31-1.69 7.8c-1.27 5.86-7.05 9.57-12.9 8.3z" /><path fill="#ff80c0" d="M282.52 98.58c-1.43 6.62-7.46 11.06-14.01 10.72.68.27 1.38.48 2.11.64l11.7 2.54c7.35 1.59 14.6-3.07 16.2-10.43" /><path fill="none" stroke="#000000" stroke-width="4" stroke-miterlimit="10" d="m285.04 113.06-17.13-3.71c-5.85-1.27-9.57-7.04-8.3-12.9l1.69-7.8 38.33 8.31-1.69 7.8c-1.27 5.86-7.05 9.57-12.9 8.3z" /><path fill="#ffa6d3" d="M333.03 66.89c-5 23.07-29.13 37.42-53.9 32.06s-40.79-28.42-35.79-51.5" /><path fill="#ff80c0" d="m333.03 66.89-28.05-6.08c-3.65 16.82-5.48 36.09-25.39 38.23 24.61 5.09 48.47-9.22 53.44-32.15z" /><path fill="none" stroke="#000000" stroke-width="4" stroke-linecap="round" stroke-linejoin="round" stroke-miterlimit="10" d="M331.73 67.66c-4.88 22.52-28.43 36.52-52.6 31.28s-39.81-27.74-34.92-50.26" /><ellipse transform="matrix(0.2119 -0.9773 0.9773 0.2119 171.2664 326.7019)" fill="#ffbfdf" cx="288" cy="57" rx="12" ry="45" /><ellipse transform="matrix(0.2119 -0.9773 0.9773 0.2119 171.2664 326.7019)" fill="#ff80c0" cx="288" cy="57" rx="5" ry="31" /><ellipse transform="matrix(0.2119 -0.9773 0.9773 0.2119 171.2664 326.7019)" fill="none" stroke="#000000" stroke-width="3" stroke-linecap="round" stroke-linejoin="round" stroke-miterlimit="10" cx="288" cy="57" rx="5" ry="31" /><ellipse transform="matrix(0.2119 -0.9773 0.9773 0.2119 171.2664 326.7019)" fill="none" stroke="#000000" stroke-width="4" stroke-miterlimit="10" cx="288" cy="57" rx="12" ry="45" /><path fill="#afe39d" d="M241.91 204.04c-12.27 7.5-28.19 12.6-45.59 12.6-24.61 0-46.26-10.21-58.81-22.96l-4.56 2.49-43.59 23.15c-10.2 5.42-18.71 13.62-24.24 23.75-6.63 12.14-10.2 28.89 2.61 46.83a9.47 9.47 0 0 0 7.71 3.96H189.4c2.97 0 5.93-.51 8.71-1.55 9.93-3.68 31.1-15.4 39.87-50.01 2.16-8.53.45-22.04 1.27-28.53.55-4.34 1.52-7.47 2.66-9.73z" /><g opacity="0.37" ><path fill="#d4ffc5" d="M123.46 201.21s7.06 19.39 23.82 18.19c31.92-2.28 37.62 21.36 37.62 21.36s-18.18-17.28-49.38-9.12c-17.89 4.68-28.72-23.06-28.72-23.06" /><path fill="#d4ffc5" d="M104.2 211.24s4.1 26.97 28.32 24.84c27.24-2.4 36.26 18.67 36.26 18.67s-11.66.23-33.44 5.18-24.42-8.01-34.8-16.16c-5.53-4.35-29.69-11.98-39.18 7.75 0 0 3.79-17.45 12.63-20.58 8.84-3.13 19.69-2.93 32.8 9.87s19.13 13.56 29.38 10.84c10.26-2.72 18.3-.51 18.3-.51s1.08-7.37-26.83-5.93c-17.09.88-18.95-18.39-30.74-20.9-11.79-2.5-14.31.98-14.31.98l21.61-14.05z" /><path fill="#d4ffc5" d="M59.93 256.97s15.35-19.57 37.31-6.25c0 0-22.56-1.32-35.87 18" /><path fill="#d4ffc5" d="M78.64 257.32s-5.87 18.82-17.27 15.59c0 0-1.2 3.31 3.11 11.41 0 0 15.36-3.96 14.16-27z" /><path fill="#d4ffc5" d="M238.06 221.85s-5.82 11.6-29.76 9.98c0 0 14.53 13.16 30.7 2.95l-.94-12.93z" /><path fill="#d4ffc5" d="M237.98 238.82s-12.74 10.1-29.51 0c0 0-6.53-4.2-6.5-12.05 0 0-3.15 11.27 4.83 19.15 0 0-11.38-1.69-14.15-10.75 0 0 1.88 24.46 39.92 18.74" /><path fill="#d4ffc5" d="M181.84 248.68s16.02-2.85 22.2 8.76c11.78 22.12 25.47 6.64 25.47 6.64l-11.79 14.6s-9.57-1.57-15.86-13.93c-9.22-18.11-20.02-16.07-20.02-16.07z" /><path fill="#d4ffc5" d="M209.45 257.4s6.32 10.56 17.08 7.82l5.54-6.14c-.01 0-11.7 4.63-22.62-1.68z" /></g><path fill="none" stroke="#000000" stroke-width="4" stroke-linecap="round" stroke-linejoin="round" stroke-miterlimit="10" d="m137.51 193.68-4.56 2.49-43.59 23.15c-10.2 5.42-18.71 13.62-24.24 23.75-6.63 12.14-10.2 28.89 2.61 46.83a9.47 9.47 0 0 0 7.71 3.96H189.4c2.97 0 5.93-.51 8.71-1.55 9.93-3.68 31.1-15.4 39.87-50.01 2.16-8.53.45-22.04 1.27-28.53.55-4.34 1.52-7.47 2.65-9.73" /><path fill="#afe39d" stroke="#000000" stroke-width="2" stroke-linecap="round" stroke-linejoin="round" stroke-miterlimit="10" d="M131.81 189.32c-3.31.73-5.05 6.84-3.25 9.91 7.67 13.09 38.13 20.17 38.13 20.17" /><path fill="#afe39d" stroke="#000000" stroke-width="2" stroke-linecap="round" stroke-linejoin="round" stroke-miterlimit="10" d="M239.57 205.16c1.06.24 1.96 1.03 2.64 2.09 2.16 3.41.95 7.96-2.56 9.95-9.48 5.37-24.25 6.61-24.25 6.61" /><path fill="#afe39d" d="M257.76 152.3a19.986 19.986 0 0 1-5.74-10.57c-4.71-23.97-27.86-42.17-55.7-42.17-27.85 0-50.99 18.2-55.7 42.17-.79 4.03-2.78 7.72-5.74 10.57-5.62 5.4-8.82 11.61-8.82 18.23 0 20.74 31.46 46.12 70.26 46.12s70.26-25.38 70.26-46.12c0-6.62-3.2-12.83-8.82-18.23z" /><path fill="none" stroke="#000000" stroke-width="4" stroke-miterlimit="10" d="M257.76 152.3a19.986 19.986 0 0 1-5.74-10.57c-4.71-23.97-27.86-42.17-55.7-42.17-27.85 0-50.99 18.2-55.7 42.17-.79 4.03-2.78 7.72-5.74 10.57-5.62 5.4-8.82 11.61-8.82 18.23 0 20.74 31.46 46.12 70.26 46.12s70.26-25.38 70.26-46.12c0-6.62-3.2-12.83-8.82-18.23z" /><path fill="none" stroke="#000000" stroke-width="4" stroke-linecap="round" stroke-miterlimit="10" d="M104.21 254.75s8.09 20.59-5.53 27.93" /><path fill="none" stroke="#000000" stroke-width="4" stroke-linecap="round" stroke-miterlimit="10" d="M104.8 293.52c0-6.08-4.93-12.01-11.01-12.01" /><path opacity="0.15" d="M106.6 272.34c11.52 18.58 81 9.58 81 9.58 41.4-7.56 46.5-38.59 51.47-57.62 6.96 41.07-31.04 64.33-40.96 68-2.79 1.03-94.44 1.55-94.44 1.55s-5.61-13.8 2.93-21.51" /><path fill="#afe39d" stroke="#000000" stroke-width="4" stroke-linecap="round" stroke-miterlimit="10" d="m154.48 268.6 5.78 19.53a7.586 7.586 0 0 0 7.34 5.67h21.44v-1.28c0-6.08-4.93-11.01-11.01-11.01" /><path fill="#afe39d" stroke="#000000" stroke-width="4" stroke-linecap="round" stroke-miterlimit="10" d="M185.48 284.37c7.41-10.87 7.12-22.02 7.12-22.02" /><path fill="#afe39d" stroke="#000000" stroke-width="4" stroke-linecap="round" stroke-linejoin="round" stroke-miterlimit="10" d="M266.38 224.9c-.22.04-.47.07-.73.08-2.59.13-7.13-1.23-8.4-6.64-.75-3.19.36-6.54 2.94-8.57 3.76-2.95 9.4-2.04 12.61 2.03 0 0 12.72 13.22-12.48 31.58" /><path fill="#afe39d" d="M147.55 131.16s-13.77-17.66-23.15-2.66c-9.83 15.72 14.12 26.09 14.12 26.09" /><path fill="none" stroke="#000000" stroke-width="4" stroke-linecap="round" stroke-linejoin="round" stroke-miterlimit="10" d="M144.99 129.2s-11.21-15.7-20.59-.7c-9.83 15.72 10.77 23.67 10.77 23.67" /><path fill="#ffafab" d="M139.36 141.97c5.64-5.37-5.64-11.38-5.64-11.38s-4.82.72-4.99 4.95c-.14 3.43 5.69 11.13 10.63 6.43z" /><path fill="none" stroke="#000000" stroke-width="2" stroke-linecap="round" stroke-linejoin="round" stroke-miterlimit="10" d="M130.1 131.52s8.42-5.76 10.1 9.15" /><path fill="#afe39d" d="M245.27 131.16s13.77-17.66 23.15-2.66c9.83 15.72-14.12 26.09-14.12 26.09" /><path fill="none" stroke="#000000" stroke-width="4" stroke-linecap="round" stroke-linejoin="round" stroke-miterlimit="10" d="M247.83 129.54s11.21-16.05 20.59-1.04c9.83 15.72-10.77 23.67-10.77 23.67" /><path fill="#ffafab" d="M253.46 141.97c-5.64-5.37 5.46-11.38 5.46-11.38s5.01.72 5.17 4.95c.14 3.43-5.69 11.13-10.63 6.43z" /><path fill="none" stroke="#000000" stroke-width="2" stroke-linecap="round" stroke-linejoin="round" stroke-miterlimit="10" d="M262.72 131.52s-8.42-5.76-10.1 9.15" /><ellipse opacity="0.15" cx="158" cy="150" rx="21" ry="22" /><ellipse opacity="0.15" cx="234" cy="151" rx="19" ry="20" /><circle fill="#FFFFFF" cx="161" cy="143" r="23" /><circle fill="#99ffd3" cx="158" cy="145" r="17" /><circle cx="158" cy="145" r="12" /><circle fill="#FFFFFF" cx="159" cy="151" r="3" /><circle fill="#FFFFFF" cx="232" cy="143" r="23" /><circle fill="none" stroke="#000000" stroke-width="4" stroke-miterlimit="10" cx="161" cy="143" r="23" /><ellipse transform="matrix(0.4115 -0.9114 0.9114 0.4115 12.6001 291.3939)" fill="#99ffd3" cx="231" cy="135" rx="14" ry="14" /><ellipse transform="matrix(0.4115 -0.9114 0.9114 0.4115 12.6001 291.3939)" cx="231" cy="135" rx="10" ry="10" /><circle fill="#FFFFFF" cx="234" cy="131" r="2" /><circle fill="none" stroke="#000000" stroke-width="4" stroke-miterlimit="10" cx="232" cy="143" r="23" /><path fill="#FFFFFF" stroke="#000000" stroke-width="3" stroke-linecap="round" stroke-linejoin="round" stroke-miterlimit="10" d="m194.91 165.88-1.8 5.25c-.2.82-1 1.35-1.83 1.21l-2.44-.39c-.83-.13-1.42-.88-1.36-1.72v-5.54" /><path fill="none" stroke="#000000" stroke-width="3" stroke-linecap="round" stroke-linejoin="round" stroke-miterlimit="10" d="M184.07 162.08s11.26 7.51 23.51 0" /><path fill="none" stroke="#000000" stroke-width="3" stroke-linecap="round" stroke-linejoin="round" stroke-miterlimit="10" d="M202.59 152.7c.69 2.4-2.03 6.09-6.22 6.1-4.19 0-6.91-3.7-6.22-6.1" /><path fill="#afe39d" d="M210.88 95.09c-.28-.01-.55 0-.81.03-.62-3.13-3.57-5.29-6.78-4.87-1.3.17-2.45.73-3.35 1.56a6.12 6.12 0 0 0-6.73-4.61 6.12 6.12 0 0 0-5.33 6.41 6.123 6.123 0 0 0-7.5 6.73c.43 3.35 3.5 5.72 6.85 5.29.43 3.35 3.5 5.72 6.85 5.29 2.32-.3 4.17-1.86 4.94-3.9a6.115 6.115 0 0 0 5.77 2.52 6.122 6.122 0 0 0 5.26-5.13c.12.01.23.03.35.03 2.58.13 4.78-1.86 4.9-4.44a4.648 4.648 0 0 0-4.42-4.91z" /><g opacity="0.3" ><path fill="#FFFFFF" d="M210.88 95.09c-.28-.01-.55 0-.81.03-.62-3.13-3.57-5.29-6.78-4.87-1.3.17-2.45.73-3.35 1.56a6.12 6.12 0 0 0-6.73-4.61c-3 .39-5.21 2.89-5.33 5.81a6.05 6.05 0 0 1 3.41-1.61c2.19-.28 4.25.63 5.54 2.22a3.283 3.283 0 0 0 3.5 1.06c2.6-.81 7.19 1.52 7.81 4.65 2.64-.71 5.05 1.94 5.24 4.23 1.11-.8 1.86-2.09 1.93-3.56a4.663 4.663 0 0 0-4.43-4.91z" /></g><path opacity="0.2" d="M208.62 102.55c-.78-.81-2.1-.81-2.84.03a4.914 4.914 0 0 1-3.69 1.67c-1.88 0-3.51-1.05-4.34-2.6a4.919 4.919 0 0 1-4.33 2.61c-2.72 0-4.92-2.19-4.92-4.91-2.72 0-4.92-2.19-4.92-4.91 0-.1 0-.2.01-.3-2.18 1.16-3.53 3.59-3.19 6.18.43 3.35 3.5 5.72 6.85 5.29.43 3.35 3.5 5.72 6.85 5.29 2.32-.3 4.17-1.86 4.94-3.9a6.115 6.115 0 0 0 5.77 2.52 6.122 6.122 0 0 0 5.26-5.13c.12.01.23.03.35.03 0 .02-.9-.93-1.8-1.87z" /><path fill="none" stroke="#000000" stroke-width="4" stroke-linecap="round" stroke-linejoin="round" stroke-miterlimit="10" d="M210.88 95.09c-.28-.01-.55 0-.81.03-.62-3.13-3.57-5.29-6.78-4.87-.59.08-1.15.23-1.67.46-.9.39-1.94.07-2.47-.75a6.094 6.094 0 0 0-5.93-2.76 6.11 6.11 0 0 0-5.1 4.39c-.29 1.02-1.15 1.78-2.2 1.88-.2.02-.41.05-.62.09-2.99.58-5.12 3.31-4.94 6.35.17 2.97 2.4 5.26 5.15 5.7.99.16 1.82.84 2.23 1.76 1.08 2.39 3.63 3.91 6.36 3.55 1.54-.2 2.88-.96 3.83-2.05.67-.77 1.81-.92 2.66-.34 1.19.81 2.68 1.21 4.22 1.01a6.124 6.124 0 0 0 5.2-4.78.4.4 0 0 1 .41-.31s4.78-1.86 4.91-4.44c.12-2.6-1.87-4.79-4.45-4.92z" /><path d="M223.9 204.35s-35.99 10.14-61.45-5.57c0 0 22.04 21.69 61.45 5.57z" /></svg>